<?xml version="1.0" standalone="no"?><!DOCTYPE svg PUBLIC "-//W3C//DTD SVG 1.1//EN" "http://www.w3.org/Graphics/SVG/1.1/DTD/svg11.dtd"><svg t="1766558660913" class="icon" viewBox="0 0 1024 1024" version="1.1" xmlns="http://www.w3.org/2000/svg" p-id="7819" xmlns:xlink="http://www.w3.org/1999/xlink" width="200" height="200"><path d="M512 0C229.262222 0 0 229.262222 0 512s229.262222 512 512 512 512-229.262222 512-512S794.737778 0 512 0z" fill="#FFCC4D" p-id="7820"></path><path d="M35.271111 313.457778c-6.826667-6.826667-6.826667-34.133333 0-40.96 13.653333-13.653333 174.648889-25.6 347.591111-6.826667 34.417778 3.982222 47.786667 13.653333 129.422222 13.653333 81.92 0 95.004444-9.671111 129.706667-13.653333 173.226667-18.773333 333.937778-6.826667 347.591111 6.826667 6.826667 6.826667 6.826667 34.133333 0 40.96s-40.96 27.306667-47.786666 47.502222c-6.826667 20.48-20.48 136.248889-61.155556 170.097778-42.382222 35.271111-201.386667 22.186667-231.822222 6.826666-68.266667-33.848889-76.515556-128.853333-88.746667-176.924444-6.826667-27.022222-47.786667-27.022222-47.786667-27.022222s-40.675556 0-47.502222 27.022222c-12.231111 48.071111-20.48 143.075556-88.746666 176.924444-30.435556 15.36-189.44 28.444444-231.822223-6.826666-40.675556-33.848889-54.328889-149.617778-61.155555-170.097778-6.826667-20.48-40.96-40.675556-47.786667-47.502222z" fill="#292F33" p-id="7821"></path><path d="M759.466667 671.288889c-1.137778 0.853333-111.502222 82.488889-247.466667 82.488889-135.68 0-246.328889-81.635556-247.466667-82.488889a14.307556 14.307556 0 0 0-20.764444 18.773333c3.697778 5.973333 91.591111 149.048889 268.231111 149.048889 176.64 0 264.533333-143.075556 268.231111-149.048889 3.413333-5.973333 2.275556-13.368889-2.56-17.92a14.563556 14.563556 0 0 0-18.204444-0.853333z" fill="#664500" p-id="7822"></path></svg>